<?xml version="1.0" encoding="UTF-8" standalone="no"?>
<!DOCTYPE svg PUBLIC "-//W3C//DTD SVG 1.1//EN"
 "http://www.w3.org/Graphics/SVG/1.1/DTD/svg11.dtd">
<!-- Generated by graphviz version 14.0.2 (20251019.1705)
 -->
<!-- Title: include/Pipal.hh Pages: 1 -->
<svg width="1277pt" height="138pt"
 viewBox="0.00 0.00 1277.00 138.00" xmlns="http://www.w3.org/2000/svg" xmlns:xlink="http://www.w3.org/1999/xlink">
<g id="graph0" class="graph" transform="scale(1 1) rotate(0) translate(4 133.75)">
<title>include/Pipal.hh</title>
<!-- Node1 -->
<g id="Node000001" class="node">
<title>Node1</title>
<g id="a_Node000001"><a xlink:title=" ">
<polygon fill="#999999" stroke="#666666" points="875.5,-129.75 790.5,-129.75 790.5,-110.5 875.5,-110.5 875.5,-129.75"/>
<text xml:space="preserve" text-anchor="middle" x="833" y="-116.25" font-family="Helvetica,sans-Serif" font-size="10.00">include/Pipal.hh</text>
</a>
</g>
</g>
<!-- Node2 -->
<g id="Node000002" class="node">
<title>Node2</title>
<g id="a_Node000002"><a xlink:href="_types_8hxx.html" target="_top" xlink:title=" ">
<polygon fill="white" stroke="#666666" points="493.88,-74.5 408.12,-74.5 408.12,-55.25 493.88,-55.25 493.88,-74.5"/>
<text xml:space="preserve" text-anchor="middle" x="451" y="-61" font-family="Helvetica,sans-Serif" font-size="10.00">Pipal/Types.hxx</text>
</a>
</g>
</g>
<!-- Node1&#45;&gt;Node2 -->
<g id="edge1_Node000001_Node000002" class="edge">
<title>Node1&#45;&gt;Node2</title>
<g id="a_edge1_Node000001_Node000002"><a xlink:title=" ">
<path fill="none" stroke="#63b8ff" d="M790.22,-113.76C729.34,-106.02 613.9,-91.03 505.28,-74.8"/>
<polygon fill="#63b8ff" stroke="#63b8ff" points="506.02,-71.38 495.61,-73.35 504.98,-78.3 506.02,-71.38"/>
</a>
</g>
</g>
<!-- Node17 -->
<g id="Node000017" class="node">
<title>Node17</title>
<g id="a_Node000017"><a xlink:href="_output_8hxx.html" target="_top" xlink:title=" ">
<polygon fill="white" stroke="#666666" points="600.38,-74.5 511.62,-74.5 511.62,-55.25 600.38,-55.25 600.38,-74.5"/>
<text xml:space="preserve" text-anchor="middle" x="556" y="-61" font-family="Helvetica,sans-Serif" font-size="10.00">Pipal/Output.hxx</text>
</a>
</g>
</g>
<!-- Node1&#45;&gt;Node17 -->
<g id="edge16_Node000001_Node000017" class="edge">
<title>Node1&#45;&gt;Node17</title>
<g id="a_edge16_Node000001_Node000017"><a xlink:title=" ">
<path fill="none" stroke="#63b8ff" d="M790.02,-110.86C742.03,-101.64 664.2,-86.68 611.6,-76.56"/>
<polygon fill="#63b8ff" stroke="#63b8ff" points="612.42,-73.16 601.94,-74.71 611.1,-80.03 612.42,-73.16"/>
</a>
</g>
</g>
<!-- Node18 -->
<g id="Node000018" class="node">
<title>Node18</title>
<g id="a_Node000018"><a xlink:href="_problem_8hxx.html" target="_top" xlink:title=" ">
<polygon fill="white" stroke="#666666" points="713.75,-74.5 618.25,-74.5 618.25,-55.25 713.75,-55.25 713.75,-74.5"/>
<text xml:space="preserve" text-anchor="middle" x="666" y="-61" font-family="Helvetica,sans-Serif" font-size="10.00">Pipal/Problem.hxx</text>
</a>
</g>
</g>
<!-- Node1&#45;&gt;Node18 -->
<g id="edge17_Node000001_Node000018" class="edge">
<title>Node1&#45;&gt;Node18</title>
<g id="a_edge17_Node000001_Node000018"><a xlink:title=" ">
<path fill="none" stroke="#63b8ff" d="M804.67,-110.09C777.32,-101.37 735.68,-88.09 705.16,-78.36"/>
<polygon fill="#63b8ff" stroke="#63b8ff" points="706.5,-75.12 695.91,-75.41 704.37,-81.78 706.5,-75.12"/>
</a>
</g>
</g>
<!-- Node19 -->
<g id="Node000019" class="node">
<title>Node19</title>
<g id="a_Node000019"><a xlink:href="_solver_8hxx.html" target="_top" xlink:title=" ">
<polygon fill="white" stroke="#666666" points="818.25,-74.5 731.75,-74.5 731.75,-55.25 818.25,-55.25 818.25,-74.5"/>
<text xml:space="preserve" text-anchor="middle" x="775" y="-61" font-family="Helvetica,sans-Serif" font-size="10.00">Pipal/Solver.hxx</text>
</a>
</g>
</g>
<!-- Node1&#45;&gt;Node19 -->
<g id="edge18_Node000001_Node000019" class="edge">
<title>Node1&#45;&gt;Node19</title>
<g id="a_edge18_Node000001_Node000019"><a xlink:title=" ">
<path fill="none" stroke="#63b8ff" d="M823.16,-110.09C814.95,-102.55 803.02,-91.6 793.09,-82.48"/>
<polygon fill="#63b8ff" stroke="#63b8ff" points="795.54,-79.98 785.81,-75.8 790.81,-85.14 795.54,-79.98"/>
</a>
</g>
</g>
<!-- Node20 -->
<g id="Node000020" class="node">
<title>Node20</title>
<g id="a_Node000020"><a xlink:href="_acceptance_8hxx.html" target="_top" xlink:title=" ">
<polygon fill="white" stroke="#666666" points="947.62,-74.5 836.38,-74.5 836.38,-55.25 947.62,-55.25 947.62,-74.5"/>
<text xml:space="preserve" text-anchor="middle" x="892" y="-61" font-family="Helvetica,sans-Serif" font-size="10.00">Pipal/Acceptance.hxx</text>
</a>
</g>
</g>
<!-- Node1&#45;&gt;Node20 -->
<g id="edge19_Node000001_Node000020" class="edge">
<title>Node1&#45;&gt;Node20</title>
<g id="a_edge19_Node000001_Node000020"><a xlink:title=" ">
<path fill="none" stroke="#63b8ff" d="M843.01,-110.09C851.37,-102.55 863.5,-91.6 873.6,-82.48"/>
<polygon fill="#63b8ff" stroke="#63b8ff" points="875.94,-85.09 881.02,-75.79 871.25,-79.89 875.94,-85.09"/>
</a>
</g>
</g>
<!-- Node21 -->
<g id="Node000021" class="node">
<title>Node21</title>
<g id="a_Node000021"><a xlink:href="_direction_8hxx.html" target="_top" xlink:title=" ">
<polygon fill="white" stroke="#666666" points="1064.25,-74.5 965.75,-74.5 965.75,-55.25 1064.25,-55.25 1064.25,-74.5"/>
<text xml:space="preserve" text-anchor="middle" x="1015" y="-61" font-family="Helvetica,sans-Serif" font-size="10.00">Pipal/Direction.hxx</text>
</a>
</g>
</g>
<!-- Node1&#45;&gt;Node21 -->
<g id="edge20_Node000001_Node000021" class="edge">
<title>Node1&#45;&gt;Node21</title>
<g id="a_edge20_Node000001_Node000021"><a xlink:title=" ">
<path fill="none" stroke="#63b8ff" d="M863.87,-110.09C893.94,-101.29 939.86,-87.86 973.19,-78.11"/>
<polygon fill="#63b8ff" stroke="#63b8ff" points="973.91,-81.54 982.52,-75.38 971.94,-74.83 973.91,-81.54"/>
</a>
</g>
</g>
<!-- Node22 -->
<g id="Node000022" class="node">
<title>Node22</title>
<g id="a_Node000022"><a xlink:href="_input_8hxx.html" target="_top" xlink:title=" ">
<polygon fill="white" stroke="#666666" points="1163.62,-74.5 1082.38,-74.5 1082.38,-55.25 1163.62,-55.25 1163.62,-74.5"/>
<text xml:space="preserve" text-anchor="middle" x="1123" y="-61" font-family="Helvetica,sans-Serif" font-size="10.00">Pipal/Input.hxx</text>
</a>
</g>
</g>
<!-- Node1&#45;&gt;Node22 -->
<g id="edge21_Node000001_Node000022" class="edge">
<title>Node1&#45;&gt;Node22</title>
<g id="a_edge21_Node000001_Node000022"><a xlink:title=" ">
<path fill="none" stroke="#63b8ff" d="M875.79,-111.27C927.68,-101.74 1015.09,-85.69 1070.86,-75.45"/>
<polygon fill="#63b8ff" stroke="#63b8ff" points="1071.22,-78.94 1080.42,-73.69 1069.96,-72.06 1071.22,-78.94"/>
</a>
</g>
</g>
<!-- Node23 -->
<g id="Node000023" class="node">
<title>Node23</title>
<g id="a_Node000023"><a xlink:href="_iterate_8hxx.html" target="_top" xlink:title=" ">
<polygon fill="white" stroke="#666666" points="1268.62,-74.5 1181.38,-74.5 1181.38,-55.25 1268.62,-55.25 1268.62,-74.5"/>
<text xml:space="preserve" text-anchor="middle" x="1225" y="-61" font-family="Helvetica,sans-Serif" font-size="10.00">Pipal/Iterate.hxx</text>
</a>
</g>
</g>
<!-- Node1&#45;&gt;Node23 -->
<g id="edge22_Node000001_Node000023" class="edge">
<title>Node1&#45;&gt;Node23</title>
<g id="a_edge22_Node000001_Node000023"><a xlink:title=" ">
<path fill="none" stroke="#63b8ff" d="M875.74,-113.99C938.16,-106.38 1058.21,-91.36 1169.91,-74.92"/>
<polygon fill="#63b8ff" stroke="#63b8ff" points="1170.17,-78.42 1179.55,-73.5 1169.14,-71.5 1170.17,-78.42"/>
</a>
</g>
</g>
<!-- Node3 -->
<g id="Node000003" class="node">
<title>Node3</title>
<g id="a_Node000003"><a xlink:title=" ">
<polygon fill="#e0e0e0" stroke="#999999" points="40,-19.25 0,-19.25 0,0 40,0 40,-19.25"/>
<text xml:space="preserve" text-anchor="middle" x="20" y="-5.75" font-family="Helvetica,sans-Serif" font-size="10.00">string</text>
</a>
</g>
</g>
<!-- Node2&#45;&gt;Node3 -->
<g id="edge2_Node000002_Node000003" class="edge">
<title>Node2&#45;&gt;Node3</title>
<g id="a_edge2_Node000002_Node000003"><a xlink:title=" ">
<path fill="none" stroke="#63b8ff" d="M407.77,-61.61C335.66,-57.29 186.2,-46 51.4,-19.4"/>
<polygon fill="#63b8ff" stroke="#63b8ff" points="52.46,-16.05 41.96,-17.51 51.08,-22.91 52.46,-16.05"/>
</a>
</g>
</g>
<!-- Node4 -->
<g id="Node000004" class="node">
<title>Node4</title>
<g id="a_Node000004"><a xlink:title=" ">
<polygon fill="#e0e0e0" stroke="#999999" points="111.75,-19.25 58.25,-19.25 58.25,0 111.75,0 111.75,-19.25"/>
<text xml:space="preserve" text-anchor="middle" x="85" y="-5.75" font-family="Helvetica,sans-Serif" font-size="10.00">iostream</text>
</a>
</g>
</g>
<!-- Node2&#45;&gt;Node4 -->
<g id="edge3_Node000002_Node000004" class="edge">
<title>Node2&#45;&gt;Node4</title>
<g id="a_edge3_Node000002_Node000004"><a xlink:title=" ">
<path fill="none" stroke="#63b8ff" d="M407.8,-59.44C346.65,-52.85 231.15,-39.28 123.16,-19.48"/>
<polygon fill="#63b8ff" stroke="#63b8ff" points="124.02,-16.08 113.55,-17.69 122.74,-22.96 124.02,-16.08"/>
</a>
</g>
</g>
<!-- Node5 -->
<g id="Node000005" class="node">
<title>Node5</title>
<g id="a_Node000005"><a xlink:title=" ">
<polygon fill="#e0e0e0" stroke="#999999" points="179.88,-19.25 130.12,-19.25 130.12,0 179.88,0 179.88,-19.25"/>
<text xml:space="preserve" text-anchor="middle" x="155" y="-5.75" font-family="Helvetica,sans-Serif" font-size="10.00">iomanip</text>
</a>
</g>
</g>
<!-- Node2&#45;&gt;Node5 -->
<g id="edge4_Node000002_Node000005" class="edge">
<title>Node2&#45;&gt;Node5</title>
<g id="a_edge4_Node000002_Node000005"><a xlink:title=" ">
<path fill="none" stroke="#63b8ff" d="M407.68,-57.58C357.8,-50.09 273.18,-36.66 191.22,-19.58"/>
<polygon fill="#63b8ff" stroke="#63b8ff" points="192.19,-16.21 181.68,-17.57 190.74,-23.05 192.19,-16.21"/>
</a>
</g>
</g>
<!-- Node6 -->
<g id="Node000006" class="node">
<title>Node6</title>
<g id="a_Node000006"><a xlink:title=" ">
<polygon fill="#e0e0e0" stroke="#999999" points="249.62,-19.25 198.38,-19.25 198.38,0 249.62,0 249.62,-19.25"/>
<text xml:space="preserve" text-anchor="middle" x="224" y="-5.75" font-family="Helvetica,sans-Serif" font-size="10.00">ostream</text>
</a>
</g>
</g>
<!-- Node2&#45;&gt;Node6 -->
<g id="edge5_Node000002_Node000006" class="edge">
<title>Node2&#45;&gt;Node6</title>
<g id="a_edge5_Node000002_Node000006"><a xlink:title=" ">
<path fill="none" stroke="#63b8ff" d="M410.65,-54.81C373.93,-46.5 317.94,-33.68 260.99,-19.94"/>
<polygon fill="#63b8ff" stroke="#63b8ff" points="261.99,-16.58 251.45,-17.63 260.34,-23.39 261.99,-16.58"/>
</a>
</g>
</g>
<!-- Node7 -->
<g id="Node000007" class="node">
<title>Node7</title>
<g id="a_Node000007"><a xlink:title=" ">
<polygon fill="#e0e0e0" stroke="#999999" points="310.5,-19.25 267.5,-19.25 267.5,0 310.5,0 310.5,-19.25"/>
<text xml:space="preserve" text-anchor="middle" x="289" y="-5.75" font-family="Helvetica,sans-Serif" font-size="10.00">cmath</text>
</a>
</g>
</g>
<!-- Node2&#45;&gt;Node7 -->
<g id="edge6_Node000002_Node000007" class="edge">
<title>Node2&#45;&gt;Node7</title>
<g id="a_edge6_Node000002_Node000007"><a xlink:title=" ">
<path fill="none" stroke="#63b8ff" d="M423.52,-54.84C395.34,-45.58 351.53,-31.18 321.61,-21.35"/>
<polygon fill="#63b8ff" stroke="#63b8ff" points="322.92,-18.09 312.33,-18.29 320.73,-24.74 322.92,-18.09"/>
</a>
</g>
</g>
<!-- Node8 -->
<g id="Node000008" class="node">
<title>Node8</title>
<g id="a_Node000008"><a xlink:title=" ">
<polygon fill="#e0e0e0" stroke="#999999" points="367.62,-19.25 328.38,-19.25 328.38,0 367.62,0 367.62,-19.25"/>
<text xml:space="preserve" text-anchor="middle" x="348" y="-5.75" font-family="Helvetica,sans-Serif" font-size="10.00">limits</text>
</a>
</g>
</g>
<!-- Node2&#45;&gt;Node8 -->
<g id="edge7_Node000002_Node000008" class="edge">
<title>Node2&#45;&gt;Node8</title>
<g id="a_edge7_Node000002_Node000008"><a xlink:title=" ">
<path fill="none" stroke="#63b8ff" d="M433.53,-54.84C417.69,-46.66 394.09,-34.46 375.69,-24.94"/>
<polygon fill="#63b8ff" stroke="#63b8ff" points="377.39,-21.88 366.9,-20.4 374.18,-28.1 377.39,-21.88"/>
</a>
</g>
</g>
<!-- Node9 -->
<g id="Node000009" class="node">
<title>Node9</title>
<g id="a_Node000009"><a xlink:title=" ">
<polygon fill="#e0e0e0" stroke="#999999" points="441.88,-19.25 386.12,-19.25 386.12,0 441.88,0 441.88,-19.25"/>
<text xml:space="preserve" text-anchor="middle" x="414" y="-5.75" font-family="Helvetica,sans-Serif" font-size="10.00">algorithm</text>
</a>
</g>
</g>
<!-- Node2&#45;&gt;Node9 -->
<g id="edge8_Node000002_Node000009" class="edge">
<title>Node2&#45;&gt;Node9</title>
<g id="a_edge8_Node000002_Node000009"><a xlink:title=" ">
<path fill="none" stroke="#63b8ff" d="M444.89,-55.08C439.94,-47.96 432.8,-37.68 426.63,-28.8"/>
<polygon fill="#63b8ff" stroke="#63b8ff" points="429.69,-27.07 421.11,-20.85 423.94,-31.06 429.69,-27.07"/>
</a>
</g>
</g>
<!-- Node10 -->
<g id="Node000010" class="node">
<title>Node10</title>
<g id="a_Node000010"><a xlink:title=" ">
<polygon fill="#e0e0e0" stroke="#999999" points="518,-19.25 460,-19.25 460,0 518,0 518,-19.25"/>
<text xml:space="preserve" text-anchor="middle" x="489" y="-5.75" font-family="Helvetica,sans-Serif" font-size="10.00">functional</text>
</a>
</g>
</g>
<!-- Node2&#45;&gt;Node10 -->
<g id="edge9_Node000002_Node000010" class="edge">
<title>Node2&#45;&gt;Node10</title>
<g id="a_edge9_Node000002_Node000010"><a xlink:title=" ">
<path fill="none" stroke="#63b8ff" d="M457.27,-55.08C462.36,-47.96 469.7,-37.68 476.03,-28.8"/>
<polygon fill="#63b8ff" stroke="#63b8ff" points="478.75,-31.01 481.71,-20.84 473.05,-26.95 478.75,-31.01"/>
</a>
</g>
</g>
<!-- Node11 -->
<g id="Node000011" class="node">
<title>Node11</title>
<g id="a_Node000011"><a xlink:title=" ">
<polygon fill="#e0e0e0" stroke="#999999" points="597.88,-19.25 536.12,-19.25 536.12,0 597.88,0 597.88,-19.25"/>
<text xml:space="preserve" text-anchor="middle" x="567" y="-5.75" font-family="Helvetica,sans-Serif" font-size="10.00">type_traits</text>
</a>
</g>
</g>
<!-- Node2&#45;&gt;Node11 -->
<g id="edge10_Node000002_Node000011" class="edge">
<title>Node2&#45;&gt;Node11</title>
<g id="a_edge10_Node000002_Node000011"><a xlink:title=" ">
<path fill="none" stroke="#63b8ff" d="M470.68,-54.84C488.84,-46.5 516.08,-34 536.97,-24.41"/>
<polygon fill="#63b8ff" stroke="#63b8ff" points="538.22,-27.69 545.85,-20.33 535.3,-21.33 538.22,-27.69"/>
</a>
</g>
</g>
<!-- Node12 -->
<g id="Node000012" class="node">
<title>Node12</title>
<g id="a_Node000012"><a xlink:title=" ">
<polygon fill="#e0e0e0" stroke="#999999" points="666.25,-19.25 615.75,-19.25 615.75,0 666.25,0 666.25,-19.25"/>
<text xml:space="preserve" text-anchor="middle" x="641" y="-5.75" font-family="Helvetica,sans-Serif" font-size="10.00">numeric</text>
</a>
</g>
</g>
<!-- Node2&#45;&gt;Node12 -->
<g id="edge11_Node000002_Node000012" class="edge">
<title>Node2&#45;&gt;Node12</title>
<g id="a_edge11_Node000002_Node000012"><a xlink:title=" ">
<path fill="none" stroke="#63b8ff" d="M483.23,-54.84C516.86,-45.42 569.48,-30.67 604.59,-20.83"/>
<polygon fill="#63b8ff" stroke="#63b8ff" points="605.18,-24.3 613.87,-18.23 603.3,-17.56 605.18,-24.3"/>
</a>
</g>
</g>
<!-- Node13 -->
<g id="Node000013" class="node">
<title>Node13</title>
<g id="a_Node000013"><a xlink:title=" ">
<polygon fill="#e0e0e0" stroke="#999999" points="735.62,-19.25 684.38,-19.25 684.38,0 735.62,0 735.62,-19.25"/>
<text xml:space="preserve" text-anchor="middle" x="710" y="-5.75" font-family="Helvetica,sans-Serif" font-size="10.00">memory</text>
</a>
</g>
</g>
<!-- Node2&#45;&gt;Node13 -->
<g id="edge12_Node000002_Node000013" class="edge">
<title>Node2&#45;&gt;Node13</title>
<g id="a_edge12_Node000002_Node000013"><a xlink:title=" ">
<path fill="none" stroke="#63b8ff" d="M494.06,-55.89C536.96,-47.81 604.95,-34.64 673.1,-19.59"/>
<polygon fill="#63b8ff" stroke="#63b8ff" points="673.56,-23.08 682.56,-17.49 672.04,-16.24 673.56,-23.08"/>
</a>
</g>
</g>
<!-- Node14 -->
<g id="Node000014" class="node">
<title>Node14</title>
<g id="a_Node000014"><a xlink:title=" ">
<polygon fill="#e0e0e0" stroke="#999999" points="826.12,-19.25 753.88,-19.25 753.88,0 826.12,0 826.12,-19.25"/>
<text xml:space="preserve" text-anchor="middle" x="790" y="-5.75" font-family="Helvetica,sans-Serif" font-size="10.00">Eigen/Dense</text>
</a>
</g>
</g>
<!-- Node2&#45;&gt;Node14 -->
<g id="edge13_Node000002_Node000014" class="edge">
<title>Node2&#45;&gt;Node14</title>
<g id="a_edge13_Node000002_Node000014"><a xlink:title=" ">
<path fill="none" stroke="#63b8ff" d="M494.12,-56.67C497.13,-56.18 500.11,-55.71 503,-55.25 606.85,-38.91 635.89,-37.56 742.42,-19.63"/>
<polygon fill="#63b8ff" stroke="#63b8ff" points="742.91,-23.1 752.18,-17.98 741.74,-16.2 742.91,-23.1"/>
</a>
</g>
</g>
<!-- Node15 -->
<g id="Node000015" class="node">
<title>Node15</title>
<g id="a_Node000015"><a xlink:title=" ">
<polygon fill="#e0e0e0" stroke="#999999" points="918.25,-19.25 843.75,-19.25 843.75,0 918.25,0 918.25,-19.25"/>
<text xml:space="preserve" text-anchor="middle" x="881" y="-5.75" font-family="Helvetica,sans-Serif" font-size="10.00">Eigen/Sparse</text>
</a>
</g>
</g>
<!-- Node2&#45;&gt;Node15 -->
<g id="edge14_Node000002_Node000015" class="edge">
<title>Node2&#45;&gt;Node15</title>
<g id="a_edge14_Node000002_Node000015"><a xlink:title=" ">
<path fill="none" stroke="#63b8ff" d="M494.1,-56.53C497.11,-56.08 500.1,-55.65 503,-55.25 646.46,-35.59 686.25,-40.67 832.22,-19.56"/>
<polygon fill="#63b8ff" stroke="#63b8ff" points="832.5,-23.06 841.89,-18.14 831.48,-16.13 832.5,-23.06"/>
</a>
</g>
</g>
<!-- Node16 -->
<g id="Node000016" class="node">
<title>Node16</title>
<g id="a_Node000016"><a xlink:title=" ">
<polygon fill="#e0e0e0" stroke="#999999" points="1051.88,-19.25 936.12,-19.25 936.12,0 1051.88,0 1051.88,-19.25"/>
<text xml:space="preserve" text-anchor="middle" x="994" y="-5.75" font-family="Helvetica,sans-Serif" font-size="10.00">Eigen/SparseCholesky</text>
</a>
</g>
</g>
<!-- Node2&#45;&gt;Node16 -->
<g id="edge15_Node000002_Node000016" class="edge">
<title>Node2&#45;&gt;Node16</title>
<g id="a_edge15_Node000002_Node000016"><a xlink:title=" ">
<path fill="none" stroke="#63b8ff" d="M494.37,-56.42C497.29,-56 500.19,-55.6 503,-55.25 686.99,-32.22 737.01,-39.04 924.54,-19.46"/>
<polygon fill="#63b8ff" stroke="#63b8ff" points="924.83,-22.95 934.41,-18.42 924.1,-15.99 924.83,-22.95"/>
</a>
</g>
</g>
</g>
</svg>
