<?xml version="1.0" encoding="UTF-8" standalone="no"?>
<!DOCTYPE svg PUBLIC "-//W3C//DTD SVG 1.1//EN"
 "http://www.w3.org/Graphics/SVG/1.1/DTD/svg11.dtd">
<!-- Generated by graphviz version 14.0.2 (20251019.1705)
 -->
<!-- Title: include/Pipal/Types.hxx Pages: 1 -->
<svg width="1060pt" height="83pt"
 viewBox="0.00 0.00 1060.00 83.00" xmlns="http://www.w3.org/2000/svg" xmlns:xlink="http://www.w3.org/1999/xlink">
<g id="graph0" class="graph" transform="scale(1 1) rotate(0) translate(4 78.5)">
<title>include/Pipal/Types.hxx</title>
<!-- Node1 -->
<g id="Node000001" class="node">
<title>Node1</title>
<g id="a_Node000001"><a xlink:title=" ">
<polygon fill="#999999" stroke="#666666" points="510.75,-74.5 391.25,-74.5 391.25,-55.25 510.75,-55.25 510.75,-74.5"/>
<text xml:space="preserve" text-anchor="middle" x="451" y="-61" font-family="Helvetica,sans-Serif" font-size="10.00">include/Pipal/Types.hxx</text>
</a>
</g>
</g>
<!-- Node2 -->
<g id="Node000002" class="node">
<title>Node2</title>
<g id="a_Node000002"><a xlink:title=" ">
<polygon fill="#e0e0e0" stroke="#999999" points="40,-19.25 0,-19.25 0,0 40,0 40,-19.25"/>
<text xml:space="preserve" text-anchor="middle" x="20" y="-5.75" font-family="Helvetica,sans-Serif" font-size="10.00">string</text>
</a>
</g>
</g>
<!-- Node1&#45;&gt;Node2 -->
<g id="edge1_Node000001_Node000002" class="edge">
<title>Node1&#45;&gt;Node2</title>
<g id="a_edge1_Node000001_Node000002"><a xlink:title=" ">
<path fill="none" stroke="#63b8ff" d="M390.89,-60.56C314.08,-55.58 176.97,-44.21 51.43,-19.41"/>
<polygon fill="#63b8ff" stroke="#63b8ff" points="52.46,-16.05 41.96,-17.51 51.08,-22.91 52.46,-16.05"/>
</a>
</g>
</g>
<!-- Node3 -->
<g id="Node000003" class="node">
<title>Node3</title>
<g id="a_Node000003"><a xlink:title=" ">
<polygon fill="#e0e0e0" stroke="#999999" points="111.75,-19.25 58.25,-19.25 58.25,0 111.75,0 111.75,-19.25"/>
<text xml:space="preserve" text-anchor="middle" x="85" y="-5.75" font-family="Helvetica,sans-Serif" font-size="10.00">iostream</text>
</a>
</g>
</g>
<!-- Node1&#45;&gt;Node3 -->
<g id="edge2_Node000001_Node000003" class="edge">
<title>Node1&#45;&gt;Node3</title>
<g id="a_edge2_Node000001_Node000003"><a xlink:title=" ">
<path fill="none" stroke="#63b8ff" d="M390.79,-57.58C326.82,-50.47 222.5,-37.71 123.21,-19.49"/>
<polygon fill="#63b8ff" stroke="#63b8ff" points="124.02,-16.08 113.55,-17.69 122.74,-22.96 124.02,-16.08"/>
</a>
</g>
</g>
<!-- Node4 -->
<g id="Node000004" class="node">
<title>Node4</title>
<g id="a_Node000004"><a xlink:title=" ">
<polygon fill="#e0e0e0" stroke="#999999" points="179.88,-19.25 130.12,-19.25 130.12,0 179.88,0 179.88,-19.25"/>
<text xml:space="preserve" text-anchor="middle" x="155" y="-5.75" font-family="Helvetica,sans-Serif" font-size="10.00">iomanip</text>
</a>
</g>
</g>
<!-- Node1&#45;&gt;Node4 -->
<g id="edge3_Node000001_Node000004" class="edge">
<title>Node1&#45;&gt;Node4</title>
<g id="a_edge3_Node000001_Node000004"><a xlink:title=" ">
<path fill="none" stroke="#63b8ff" d="M390.91,-55.04C340.13,-47.25 265.26,-35.03 191.13,-19.56"/>
<polygon fill="#63b8ff" stroke="#63b8ff" points="192.19,-16.21 181.68,-17.57 190.74,-23.06 192.19,-16.21"/>
</a>
</g>
</g>
<!-- Node5 -->
<g id="Node000005" class="node">
<title>Node5</title>
<g id="a_Node000005"><a xlink:title=" ">
<polygon fill="#e0e0e0" stroke="#999999" points="249.62,-19.25 198.38,-19.25 198.38,0 249.62,0 249.62,-19.25"/>
<text xml:space="preserve" text-anchor="middle" x="224" y="-5.75" font-family="Helvetica,sans-Serif" font-size="10.00">ostream</text>
</a>
</g>
</g>
<!-- Node1&#45;&gt;Node5 -->
<g id="edge4_Node000001_Node000005" class="edge">
<title>Node1&#45;&gt;Node5</title>
<g id="a_edge4_Node000001_Node000005"><a xlink:title=" ">
<path fill="none" stroke="#63b8ff" d="M410.65,-54.81C373.93,-46.5 317.94,-33.68 260.99,-19.94"/>
<polygon fill="#63b8ff" stroke="#63b8ff" points="261.99,-16.58 251.45,-17.63 260.34,-23.39 261.99,-16.58"/>
</a>
</g>
</g>
<!-- Node6 -->
<g id="Node000006" class="node">
<title>Node6</title>
<g id="a_Node000006"><a xlink:title=" ">
<polygon fill="#e0e0e0" stroke="#999999" points="310.5,-19.25 267.5,-19.25 267.5,0 310.5,0 310.5,-19.25"/>
<text xml:space="preserve" text-anchor="middle" x="289" y="-5.75" font-family="Helvetica,sans-Serif" font-size="10.00">cmath</text>
</a>
</g>
</g>
<!-- Node1&#45;&gt;Node6 -->
<g id="edge5_Node000001_Node000006" class="edge">
<title>Node1&#45;&gt;Node6</title>
<g id="a_edge5_Node000001_Node000006"><a xlink:title=" ">
<path fill="none" stroke="#63b8ff" d="M423.52,-54.84C395.34,-45.58 351.53,-31.18 321.61,-21.35"/>
<polygon fill="#63b8ff" stroke="#63b8ff" points="322.92,-18.09 312.33,-18.29 320.73,-24.74 322.92,-18.09"/>
</a>
</g>
</g>
<!-- Node7 -->
<g id="Node000007" class="node">
<title>Node7</title>
<g id="a_Node000007"><a xlink:title=" ">
<polygon fill="#e0e0e0" stroke="#999999" points="367.62,-19.25 328.38,-19.25 328.38,0 367.62,0 367.62,-19.25"/>
<text xml:space="preserve" text-anchor="middle" x="348" y="-5.75" font-family="Helvetica,sans-Serif" font-size="10.00">limits</text>
</a>
</g>
</g>
<!-- Node1&#45;&gt;Node7 -->
<g id="edge6_Node000001_Node000007" class="edge">
<title>Node1&#45;&gt;Node7</title>
<g id="a_edge6_Node000001_Node000007"><a xlink:title=" ">
<path fill="none" stroke="#63b8ff" d="M433.53,-54.84C417.69,-46.66 394.09,-34.46 375.69,-24.94"/>
<polygon fill="#63b8ff" stroke="#63b8ff" points="377.39,-21.88 366.9,-20.4 374.18,-28.1 377.39,-21.88"/>
</a>
</g>
</g>
<!-- Node8 -->
<g id="Node000008" class="node">
<title>Node8</title>
<g id="a_Node000008"><a xlink:title=" ">
<polygon fill="#e0e0e0" stroke="#999999" points="441.88,-19.25 386.12,-19.25 386.12,0 441.88,0 441.88,-19.25"/>
<text xml:space="preserve" text-anchor="middle" x="414" y="-5.75" font-family="Helvetica,sans-Serif" font-size="10.00">algorithm</text>
</a>
</g>
</g>
<!-- Node1&#45;&gt;Node8 -->
<g id="edge7_Node000001_Node000008" class="edge">
<title>Node1&#45;&gt;Node8</title>
<g id="a_edge7_Node000001_Node000008"><a xlink:title=" ">
<path fill="none" stroke="#63b8ff" d="M444.89,-55.08C439.94,-47.96 432.8,-37.68 426.63,-28.8"/>
<polygon fill="#63b8ff" stroke="#63b8ff" points="429.69,-27.07 421.11,-20.85 423.94,-31.06 429.69,-27.07"/>
</a>
</g>
</g>
<!-- Node9 -->
<g id="Node000009" class="node">
<title>Node9</title>
<g id="a_Node000009"><a xlink:title=" ">
<polygon fill="#e0e0e0" stroke="#999999" points="518,-19.25 460,-19.25 460,0 518,0 518,-19.25"/>
<text xml:space="preserve" text-anchor="middle" x="489" y="-5.75" font-family="Helvetica,sans-Serif" font-size="10.00">functional</text>
</a>
</g>
</g>
<!-- Node1&#45;&gt;Node9 -->
<g id="edge8_Node000001_Node000009" class="edge">
<title>Node1&#45;&gt;Node9</title>
<g id="a_edge8_Node000001_Node000009"><a xlink:title=" ">
<path fill="none" stroke="#63b8ff" d="M457.27,-55.08C462.36,-47.96 469.7,-37.68 476.03,-28.8"/>
<polygon fill="#63b8ff" stroke="#63b8ff" points="478.75,-31.01 481.71,-20.84 473.05,-26.95 478.75,-31.01"/>
</a>
</g>
</g>
<!-- Node10 -->
<g id="Node000010" class="node">
<title>Node10</title>
<g id="a_Node000010"><a xlink:title=" ">
<polygon fill="#e0e0e0" stroke="#999999" points="597.88,-19.25 536.12,-19.25 536.12,0 597.88,0 597.88,-19.25"/>
<text xml:space="preserve" text-anchor="middle" x="567" y="-5.75" font-family="Helvetica,sans-Serif" font-size="10.00">type_traits</text>
</a>
</g>
</g>
<!-- Node1&#45;&gt;Node10 -->
<g id="edge9_Node000001_Node000010" class="edge">
<title>Node1&#45;&gt;Node10</title>
<g id="a_edge9_Node000001_Node000010"><a xlink:title=" ">
<path fill="none" stroke="#63b8ff" d="M470.68,-54.84C488.84,-46.5 516.08,-34 536.97,-24.41"/>
<polygon fill="#63b8ff" stroke="#63b8ff" points="538.22,-27.69 545.85,-20.33 535.3,-21.33 538.22,-27.69"/>
</a>
</g>
</g>
<!-- Node11 -->
<g id="Node000011" class="node">
<title>Node11</title>
<g id="a_Node000011"><a xlink:title=" ">
<polygon fill="#e0e0e0" stroke="#999999" points="666.25,-19.25 615.75,-19.25 615.75,0 666.25,0 666.25,-19.25"/>
<text xml:space="preserve" text-anchor="middle" x="641" y="-5.75" font-family="Helvetica,sans-Serif" font-size="10.00">numeric</text>
</a>
</g>
</g>
<!-- Node1&#45;&gt;Node11 -->
<g id="edge10_Node000001_Node000011" class="edge">
<title>Node1&#45;&gt;Node11</title>
<g id="a_edge10_Node000001_Node000011"><a xlink:title=" ">
<path fill="none" stroke="#63b8ff" d="M483.23,-54.84C516.86,-45.42 569.48,-30.67 604.59,-20.83"/>
<polygon fill="#63b8ff" stroke="#63b8ff" points="605.18,-24.3 613.87,-18.23 603.3,-17.56 605.18,-24.3"/>
</a>
</g>
</g>
<!-- Node12 -->
<g id="Node000012" class="node">
<title>Node12</title>
<g id="a_Node000012"><a xlink:title=" ">
<polygon fill="#e0e0e0" stroke="#999999" points="735.62,-19.25 684.38,-19.25 684.38,0 735.62,0 735.62,-19.25"/>
<text xml:space="preserve" text-anchor="middle" x="710" y="-5.75" font-family="Helvetica,sans-Serif" font-size="10.00">memory</text>
</a>
</g>
</g>
<!-- Node1&#45;&gt;Node12 -->
<g id="edge11_Node000001_Node000012" class="edge">
<title>Node1&#45;&gt;Node12</title>
<g id="a_edge11_Node000001_Node000012"><a xlink:title=" ">
<path fill="none" stroke="#63b8ff" d="M500.07,-54.76C543.15,-46.61 607.75,-34.03 673.12,-19.59"/>
<polygon fill="#63b8ff" stroke="#63b8ff" points="673.56,-23.08 682.56,-17.49 672.04,-16.24 673.56,-23.08"/>
</a>
</g>
</g>
<!-- Node13 -->
<g id="Node000013" class="node">
<title>Node13</title>
<g id="a_Node000013"><a xlink:title=" ">
<polygon fill="#e0e0e0" stroke="#999999" points="826.12,-19.25 753.88,-19.25 753.88,0 826.12,0 826.12,-19.25"/>
<text xml:space="preserve" text-anchor="middle" x="790" y="-5.75" font-family="Helvetica,sans-Serif" font-size="10.00">Eigen/Dense</text>
</a>
</g>
</g>
<!-- Node1&#45;&gt;Node13 -->
<g id="edge12_Node000001_Node000013" class="edge">
<title>Node1&#45;&gt;Node13</title>
<g id="a_edge12_Node000001_Node000013"><a xlink:title=" ">
<path fill="none" stroke="#63b8ff" d="M511.08,-55.45C568.08,-47.3 656.42,-34.27 742.38,-19.64"/>
<polygon fill="#63b8ff" stroke="#63b8ff" points="742.91,-23.1 752.18,-17.97 741.73,-16.21 742.91,-23.1"/>
</a>
</g>
</g>
<!-- Node14 -->
<g id="Node000014" class="node">
<title>Node14</title>
<g id="a_Node000014"><a xlink:title=" ">
<polygon fill="#e0e0e0" stroke="#999999" points="918.25,-19.25 843.75,-19.25 843.75,0 918.25,0 918.25,-19.25"/>
<text xml:space="preserve" text-anchor="middle" x="881" y="-5.75" font-family="Helvetica,sans-Serif" font-size="10.00">Eigen/Sparse</text>
</a>
</g>
</g>
<!-- Node1&#45;&gt;Node14 -->
<g id="edge13_Node000001_Node000014" class="edge">
<title>Node1&#45;&gt;Node14</title>
<g id="a_edge13_Node000001_Node000014"><a xlink:title=" ">
<path fill="none" stroke="#63b8ff" d="M511.03,-58.21C584.46,-50.98 712.8,-37.41 832.22,-19.58"/>
<polygon fill="#63b8ff" stroke="#63b8ff" points="832.52,-23.08 841.88,-18.13 831.47,-16.16 832.52,-23.08"/>
</a>
</g>
</g>
<!-- Node15 -->
<g id="Node000015" class="node">
<title>Node15</title>
<g id="a_Node000015"><a xlink:title=" ">
<polygon fill="#e0e0e0" stroke="#999999" points="1051.88,-19.25 936.12,-19.25 936.12,0 1051.88,0 1051.88,-19.25"/>
<text xml:space="preserve" text-anchor="middle" x="994" y="-5.75" font-family="Helvetica,sans-Serif" font-size="10.00">Eigen/SparseCholesky</text>
</a>
</g>
</g>
<!-- Node1&#45;&gt;Node15 -->
<g id="edge14_Node000001_Node000015" class="edge">
<title>Node1&#45;&gt;Node15</title>
<g id="a_edge14_Node000001_Node000015"><a xlink:title=" ">
<path fill="none" stroke="#63b8ff" d="M511.18,-58.9C599.45,-51.47 769.48,-36.57 924.76,-19.46"/>
<polygon fill="#63b8ff" stroke="#63b8ff" points="924.85,-22.97 934.41,-18.39 924.08,-16.02 924.85,-22.97"/>
</a>
</g>
</g>
</g>
</svg>
